<svg xmlns="http://www.w3.org/2000/svg" viewBox="0 0 32.42 32.42"><defs><style>.cls-1{fill:#07102E;}.cls-2{fill:#fff;fill-rule:evenodd;}</style></defs><title>Asset 8</title><g id="Layer_2" data-name="Layer 2"><g id="Layer_1-2" data-name="Layer 1"><circle class="cls-1" cx="16.21" cy="16.21" r="16.21" transform="translate(-6.71 16.21) rotate(-45)"/><path class="cls-2" d="M16.21,5.87A10.35,10.35,0,0,0,5.87,16.21a10.25,10.25,0,0,0,1.65,5.6L6,25.28a.89.89,0,0,0,.13.95.9.9,0,0,0,.69.32,1,1,0,0,0,.24,0l4.33-1.19A10.34,10.34,0,1,0,16.21,5.87Zm0,18.88a8.54,8.54,0,0,1-4.3-1.17.92.92,0,0,0-.45-.12,1,1,0,0,0-.24,0l-2.83.78,1-2.17a.88.88,0,0,0-.09-.9,8.54,8.54,0,1,1,6.93,3.55Z"/><path class="cls-2" d="M20.19,17.76a1.77,1.77,0,0,0-1.51-.34c-.39.16-.64.77-.9,1.08a.36.36,0,0,1-.48.11,6.86,6.86,0,0,1-3.41-2.92.42.42,0,0,1,.06-.57,2.26,2.26,0,0,0,.61-1,2.15,2.15,0,0,0-.27-1.19,3,3,0,0,0-.88-1.33,1.2,1.2,0,0,0-1.31.2,2.67,2.67,0,0,0-.92,2.1,3,3,0,0,0,.09.67A5.05,5.05,0,0,0,11.91,16a11.08,11.08,0,0,0,.66,1,10.63,10.63,0,0,0,2.9,2.69,8.55,8.55,0,0,0,1.81.85,4,4,0,0,0,2.1.34,2.54,2.54,0,0,0,1.9-1.42,1.15,1.15,0,0,0,.09-.73C21.26,18.3,20.59,18,20.19,17.76Z"/></g></g></svg>