<svg xmlns="http://www.w3.org/2000/svg" viewBox="0 0 32.95 32.95"><defs><style>.cls-1{fill:#1b358e;}.cls-2{fill:#fff;}</style></defs><title>Asset 6</title><g id="Layer_2" data-name="Layer 2"><g id="Layer_1-2" data-name="Layer 1"><circle class="cls-1" cx="16.47" cy="16.47" r="16.47" transform="translate(-5.05 7.56) rotate(-22.5)"/><circle class="cls-2" cx="22.31" cy="10.74" r="1.28"/><path class="cls-2" d="M16.62,11.1A5.38,5.38,0,1,0,22,16.47,5.38,5.38,0,0,0,16.62,11.1Zm0,8.82a3.45,3.45,0,1,1,3.44-3.45A3.46,3.46,0,0,1,16.62,19.92Z"/><path class="cls-2" d="M20.88,27.39H12.17a6.56,6.56,0,0,1-6.56-6.56V12.12a6.56,6.56,0,0,1,6.56-6.56h8.71a6.56,6.56,0,0,1,6.56,6.56v8.71A6.56,6.56,0,0,1,20.88,27.39ZM12.17,7.61a4.51,4.51,0,0,0-4.5,4.51v8.71a4.51,4.51,0,0,0,4.5,4.51h8.71a4.51,4.51,0,0,0,4.51-4.51V12.12a4.51,4.51,0,0,0-4.51-4.51Z"/></g></g></svg>