<svg xmlns="http://www.w3.org/2000/svg" viewBox="0 0 32.7 32.7"><defs><style>.cls-1{fill:#1b358e;}.cls-2{fill:#a2b1ce;}.cls-3{fill:#e8ecf3;}.cls-4{fill:#a7b5d1;}.cls-5{fill:#fff;fill-rule:evenodd;}</style></defs><title>Asset 7</title><g id="Layer_2" data-name="Layer 2"><g id="Layer_1-2" data-name="Layer 1"><circle class="cls-1" cx="16.35" cy="16.35" r="16.35" transform="translate(-3.32 28.5) rotate(-76.72)"/><path class="cls-2" d="M16,17.27,16,17a3.14,3.14,0,0,1,.21-1.42l.23.2c.51.43.08,1,.2,1.45H16Z"/><path class="cls-3" d="M16.71,16.07c-.11.27-.21.54-.32.8-.14-.28-.92-.56,0-.84Z"/><path class="cls-4" d="M16,15.62h.4c.07.21.13.42.2.63-.22.14,0,.27,0,.41l-.21.22a.39.39,0,0,0-.21.4C15.82,16.77,16.11,16.17,16,15.62Z"/><path class="cls-5" d="M13.64,16.53v10a.26.26,0,0,0,.26.26h3.72a.26.26,0,0,0,.26-.26V16.37h2.69a.25.25,0,0,0,.26-.24l.26-3.07a.25.25,0,0,0-.26-.28H17.88V10.61a.93.93,0,0,1,.92-.93h2.08a.26.26,0,0,0,.26-.26V6.36a.26.26,0,0,0-.26-.26H17.37a3.73,3.73,0,0,0-3.73,3.73v2.95H11.78a.26.26,0,0,0-.26.26v3.07a.26.26,0,0,0,.26.26h1.86Z"/></g></g></svg>