<svg xmlns="http://www.w3.org/2000/svg" viewBox="0 0 2816 592.66"><defs><style>.cls-1{fill:none;}.cls-1,.cls-2,.cls-3{stroke:#ebe6ef;stroke-miterlimit:10;}.cls-1,.cls-3{stroke-width:8px;}.cls-2,.cls-3,.cls-4,.cls-7{fill:#ebe6ef;}.cls-2{stroke-width:6px;}.cls-5{fill:#00c4cc;}.cls-6{font-size:348.87px;fill:#f2f2f2;}.cls-6,.cls-7{font-family:NexaBold, Nexa Bold;}.cls-7{font-size:375.42px;}.cls-8{letter-spacing:0.02em;}</style></defs><title>Asset 1</title><g id="Layer_2" data-name="Layer 2"><g id="Layer_1-2" data-name="Layer 1"><line class="cls-1" x1="231.73" y1="81.21" x2="479.33" y2="118.36"/><line class="cls-2" x1="98.54" y1="184.57" x2="207.46" y2="20.69"/><line class="cls-2" x1="274.9" y1="183.46" x2="206.77" y2="17.68"/><line class="cls-2" x1="99.48" y1="335.74" x2="98.38" y2="181.92"/><line class="cls-2" x1="274.74" y1="180.82" x2="98.54" y2="184.57"/><line class="cls-2" x1="374.81" y1="10.44" x2="337.26" y2="93.57"/><line class="cls-1" x1="476.37" y1="68.13" x2="337.26" y2="93.57"/><line class="cls-2" x1="98.38" y1="181.92" x2="10.37" y2="354.25"/><line class="cls-2" x1="86.74" y1="502.3" x2="99.48" y2="335.74"/><line class="cls-2" x1="255.25" y1="457.89" x2="86.74" y2="502.3"/><line class="cls-2" x1="331.62" y1="583.39" x2="255.25" y2="457.89"/><line class="cls-2" x1="471.9" y1="532.67" x2="381.31" y2="526.07"/><line class="cls-2" x1="335.59" y1="583.15" x2="381.31" y2="526.07"/><line class="cls-1" x1="476.37" y1="68.13" x2="374.81" y2="10.44"/><line class="cls-3" x1="62.68" y1="116.37" x2="206.77" y2="17.68"/><line class="cls-3" x1="374.81" y1="10.44" x2="206.77" y2="17.68"/><line class="cls-3" x1="63.77" y1="112.33" x2="9.27" y2="222.99"/><line class="cls-3" x1="10.37" y1="354.25" x2="9.27" y2="222.99"/><line class="cls-3" x1="86.74" y1="502.3" x2="10.37" y2="354.25"/><line class="cls-3" x1="190.17" y1="569.17" x2="86.74" y2="502.3"/><line class="cls-3" x1="335.59" y1="583.15" x2="186.13" y2="568.08"/><line class="cls-3" x1="471.9" y1="532.67" x2="331.62" y2="583.39"/><line class="cls-3" x1="479.33" y1="118.36" x2="476.37" y2="68.13"/><line class="cls-2" x1="99.48" y1="335.74" x2="10.37" y2="354.25"/><line class="cls-2" x1="98.38" y1="181.92" x2="63.77" y2="112.33"/><line class="cls-2" x1="9.27" y1="222.99" x2="98.38" y2="181.92"/><line class="cls-2" x1="231.73" y1="81.21" x2="374.81" y2="10.44"/><line class="cls-2" x1="98.38" y1="181.92" x2="231.73" y2="81.21"/><line class="cls-2" x1="99.48" y1="335.74" x2="163.73" y2="480.52"/><line class="cls-2" x1="255.25" y1="457.89" x2="190.17" y2="569.17"/><circle class="cls-4" cx="479.33" cy="118.36" r="9.27"/><circle class="cls-4" cx="476.37" cy="68.13" r="9.27"/><circle class="cls-4" cx="336.01" cy="94.97" r="9.27"/><circle class="cls-4" cx="372.09" cy="9.27" r="9.27"/><circle class="cls-4" cx="233.13" cy="82.46" r="9.27"/><circle class="cls-4" cx="206.84" cy="19" r="9.27"/><circle class="cls-4" cx="273.34" cy="179.58" r="9.27"/><circle class="cls-4" cx="98.54" cy="184.57" r="9.27"/><circle class="cls-4" cx="63.77" cy="112.33" r="9.27"/><circle class="cls-4" cx="9.27" cy="222.99" r="9.27"/><circle class="cls-4" cx="10.37" cy="354.25" r="9.27"/><circle class="cls-4" cx="98.16" cy="335.81" r="9.27"/><circle class="cls-4" cx="86.67" cy="500.98" r="9.27"/><circle class="cls-4" cx="166.37" cy="480.37" r="9.27"/><circle class="cls-4" cx="255.25" cy="457.89" r="9.27"/><circle class="cls-4" cx="188.77" cy="567.92" r="9.27"/><circle class="cls-4" cx="331.62" cy="583.39" r="9.27"/><circle class="cls-4" cx="382.47" cy="523.35" r="9.27"/>
<circle class="cls-4" cx="471.9" cy="532.67" r="9.27"/><rect class="cls-5" x="2235.81" y="4.39" width="580.19" height="580.19"/><text class="cls-6" transform="translate(2301.46 404.65)">SP</text><text class="cls-7" transform="translate(359.76 445.21)">Xperien<tspan class="cls-8" x="1408.55" y="0">c</tspan><tspan x="1595.13" y="0">e</tspan></text></g></g></svg>